<?xml version="1.0" encoding="UTF-8"?>
<svg width="139px" height="139px" viewBox="0 0 139 139" version="1.1" xmlns="http://www.w3.org/2000/svg" xmlns:xlink="http://www.w3.org/1999/xlink">
    <!-- Generator: Sketch 52.1 (67048) - http://www.bohemiancoding.com/sketch -->
    <title>Slice 1</title>
    <desc>Created with Sketch.</desc>
    <g id="Page-1" stroke="none" stroke-width="1" fill="none" fill-rule="evenodd">
        <g id="climate-01" transform="translate(4.000000, 4.000000)" stroke="#4ECACE" stroke-width="8">
            <circle id="Oval" cx="65.5" cy="65.5" r="65.5"></circle>
        </g>
        <g id="if_weather_icons-36_390487" transform="translate(28.000000, 32.000000)" fill="#4ECACE">
            <path d="M68.0689655,17.6470588 C67.3346897,17.6470588 66.4584828,17.7632353 65.6242759,17.9176471 C62.5901379,7.37058824 53.0981379,0 42,0 C30.9018621,0 21.4084138,7.37058824 18.3771724,17.9176471 C17.5415172,17.7632353 16.6653103,17.6470588 15.9310345,17.6470588 C7.14724138,17.6470588 0,24.9044118 0,33.8235294 C0,42.7426471 7.14724138,50 15.9310345,50 C17.529931,50 18.8275862,48.6823529 18.8275862,47.0588235 C18.8275862,45.4352941 17.529931,44.1176471 15.9310345,44.1176471 C10.3406897,44.1176471 5.79310345,39.4985294 5.79310345,33.8235294 C5.79310345,28.1485294 10.3406897,23.5294118 15.9310345,23.5294118 C16.3322069,23.5294118 16.9781379,23.6294118 17.6588276,23.7676471 L17.6588276,26.4705882 C17.6588276,28.0941176 18.9564828,29.4117647 20.5553793,29.4117647 C22.1542759,29.4117647 23.451931,28.0941176 23.451931,26.4705882 L23.451931,21.7338235 C25.0073793,12.5397059 32.7744828,5.88235294 42,5.88235294 C51.2255172,5.88235294 58.9911724,12.5397059 60.548069,21.7338235 L60.548069,26.4705882 C60.548069,28.0941176 61.8457241,29.4117647 63.4446207,29.4117647 C65.0435172,29.4117647 66.3411724,28.0941176 66.3411724,26.4705882 L66.3411724,23.7676471 C67.0218621,23.6294118 67.6663448,23.5294118 68.0689655,23.5294118 C73.6578621,23.5294118 78.2068966,28.1485294 78.2068966,33.8235294 C78.2068966,39.4985294 73.6578621,44.1176471 68.0689655,44.1176471 C66.470069,44.1176471 65.1724138,45.4352941 65.1724138,47.0588235 C65.1724138,48.6823529 66.470069,50 68.0689655,50 C76.8527586,50 84,42.7426471 84,33.8235294 C84,24.9044118 76.8527586,17.6470588 68.0689655,17.6470588 Z" id="Path"></path>
            <path d="M43.8789467,35.089109 C42.376966,34.693764 40.8581876,35.6513775 40.4830424,37.2195795 L32.0842682,72.3613613 C31.709123,73.9310276 32.6217898,75.519729 34.120971,75.9136098 C34.3491377,75.9721794 34.5773044,76 34.8026715,76 C36.0568884,76 37.1977219,75.11267 37.5168753,73.781675 L45.9156495,38.6398932 C46.2907947,37.070227 45.3795277,35.4815256 43.8789467,35.089109 Z" id="Path"></path>
            <path d="M55.8351177,44.0879422 C54.3038607,43.6984329 52.7540343,44.6398668 52.3712201,46.1792191 L48.0859859,63.4268631 C47.7031717,64.9676526 48.6344959,66.5285644 50.1657529,66.9137618 C50.398584,66.9726912 50.631415,67 50.8599608,67 C52.1398174,67 53.3054011,66.128994 53.6296505,64.8224849 L57.9134563,47.5748409 C58.297699,46.0326141 57.3663747,44.4717023 55.8351177,44.0879422 Z" id="Path"></path>
            <path d="M27.8344356,44.0879422 C26.3075968,43.6984329 24.7536205,44.6398668 24.3708396,46.1792191 L20.0859784,63.4268631 C19.7031975,64.9676526 20.6344406,66.5285644 22.1655644,66.9137618 C22.3983751,66.9726912 22.6311859,67 22.8597119,67 C24.1394571,67 25.3049393,66.128994 25.6291604,64.8224849 L29.9140216,47.5748409 C30.2968025,46.0326141 29.3655594,44.4717023 27.8344356,44.0879422 Z" id="Path"></path>
        </g>
    </g>
</svg>