<?xml version="1.0" encoding="UTF-8"?>
<svg width="139px" height="139px" viewBox="0 0 139 139" version="1.1" xmlns="http://www.w3.org/2000/svg" xmlns:xlink="http://www.w3.org/1999/xlink">
    <!-- Generator: Sketch 52.1 (67048) - http://www.bohemiancoding.com/sketch -->
    <title>Slice 1</title>
    <desc>Created with Sketch.</desc>
    <g id="Page-1" stroke="none" stroke-width="1" fill="none" fill-rule="evenodd">
        <g id="Group-4" transform="translate(4.000000, 4.000000)" fill-rule="nonzero">
            <g id="Group-3-Copy" stroke="#4ECACE" stroke-width="8">
                <g id="Group">
                    <circle id="Oval" cx="65.5" cy="65.5" r="65.5"></circle>
                </g>
            </g>
            <g id="if_weather-16_809993" transform="translate(39.000000, 29.000000)" fill="#4ECACE">
                <path d="M27,0 C43.2,16.5 54,23.375 54,38.5 C54,53.625 41.85,66 27,66 C12.15,66 0,53.625 0,38.5 C0,23.375 10.8,16.5 27,0 Z M27,60.5 C38.88,60.5 48.6,50.6 48.6,38.5 C48.6,26.4 35.1,16.5 27,8.25 C18.9,16.5 5.4,26.4 5.4,38.5 C5.4,50.6 15.12,60.5 27,60.5 Z M40.8148148,25 C43.9259259,28.64 46,33.4 46,39 C46,44.6 44.1851852,49.36 40.8148148,53 L39,50.48 C41.8518519,47.68 43.6666667,43.2 43.6666667,38.72 C43.6666667,34.24 41.8518519,30.04 39,26.96 L40.8148148,25 Z" id="Combined-Shape"></path>
            </g>
        </g>
    </g>
</svg>