<?xml version="1.0" encoding="UTF-8"?>
<svg width="139px" height="139px" viewBox="0 0 139 139" version="1.1" xmlns="http://www.w3.org/2000/svg" xmlns:xlink="http://www.w3.org/1999/xlink">
    <!-- Generator: Sketch 52.1 (67048) - http://www.bohemiancoding.com/sketch -->
    <title>Slice 1</title>
    <desc>Created with Sketch.</desc>
    <g id="Page-1" stroke="none" stroke-width="1" fill="none" fill-rule="evenodd">
        <g id="climate-01" transform="translate(4.000000, 4.000000)" stroke="#4ECACE" stroke-width="8">
            <circle id="Oval" cx="65.5" cy="65.5" r="65.5"></circle>
        </g>
        <g id="if_weather_icons-66_390472" transform="translate(36.000000, 36.000000)" fill="#5DCED2" fill-rule="nonzero">
            <path d="M66.3892752,16.0001875 L40.8886111,9.6251875 C40.8588616,9.61775 40.8269871,9.619875 40.7972375,9.6135 C40.7026765,9.594375 40.607053,9.5826875 40.510367,9.5763125 C40.4572429,9.5720625 40.4051812,9.5678125 40.352057,9.5678125 C40.2436837,9.5699375 40.1363729,9.5826875 40.029062,9.5996875 C39.9886877,9.6060625 39.9483133,9.6081875 39.9100639,9.61775 C39.7708786,9.6485625 39.6338182,9.692125 39.5010078,9.7526875 C39.4935704,9.7569375 39.486133,9.758 39.4786956,9.7611875 C39.3469477,9.8228125 39.2194497,9.8971875 39.0993891,9.9875 L29.7495352,17 L29.7495352,10.1745 C31.6226934,9.352125 32.9369854,7.4853125 32.9369854,5.3125 C32.9369854,2.3831875 30.5538351,0 27.6245684,0 C24.6953016,0 22.3121514,2.3831875 22.3121514,5.3125 C22.3121514,7.4853125 23.6264433,9.3531875 25.4996016,10.1745 L25.4996016,63.75 L2.1249668,63.75 C0.951985125,63.75 0,64.702 0,65.875 C0,67.048 0.951985125,68 2.1249668,68 L53.1241699,68 C54.2971516,68 55.2491367,67.048 55.2491367,65.875 C55.2491367,64.702 54.2971516,63.75 53.1241699,63.75 L29.7495352,63.75 L29.7495352,25.5 L39.0993891,32.5125 C39.2141373,32.5985625 39.3426978,32.6453125 39.4670083,32.7048125 C39.5456321,32.742 39.615756,32.7983125 39.6986297,32.8259375 C39.9185638,32.89925 40.1459352,32.9375 40.3733067,32.9375 C40.3733067,32.9375 40.3733067,32.9375 40.3743692,32.9375 C40.3807441,32.9375 40.387119,32.935375 40.3945563,32.935375 C40.5549913,32.93325 40.7143638,32.9130625 40.8705489,32.875875 C40.8769238,32.8748125 40.8832987,32.8748125 40.8896736,32.87375 L66.3903377,26.49875 C67.3359479,26.2618125 68,25.412875 68,24.4375 L68,18.0625 C67.9989375,17.0860625 67.3348854,16.2360625 66.3892752,16.0001875 Z M38.2494024,26.5614375 L31.1658255,21.2489375 L38.2494024,15.9364375 L38.2494024,26.5614375 Z M27.6245684,4.2489375 C28.2099967,4.2489375 28.6870518,4.7249375 28.6870518,5.3114375 C28.6870518,5.8979375 28.2099967,6.3739375 27.6245684,6.3739375 C27.03914,6.3739375 26.562085,5.8979375 26.562085,5.3114375 C26.562085,4.7249375 27.03914,4.2489375 27.6245684,4.2489375 Z M42.4993359,14.4075 L50.9992031,16.5325 L50.9992031,25.9643125 L42.4993359,28.0893125 L42.4993359,14.4075 Z M63.7490039,22.7768125 L55.2491367,24.9018125 L55.2491367,17.595 L63.7490039,19.72 L63.7490039,22.7768125 Z" id="Shape"></path>
        </g>
    </g>
</svg>