<?xml version="1.0" encoding="UTF-8"?>
<svg width="139px" height="139px" viewBox="0 0 139 139" version="1.1" xmlns="http://www.w3.org/2000/svg" xmlns:xlink="http://www.w3.org/1999/xlink">
    <!-- Generator: Sketch 52.2 (67145) - http://www.bohemiancoding.com/sketch -->
    <title>Slice 1</title>
    <desc>Created with Sketch.</desc>
    <g id="Page-1" stroke="none" stroke-width="1" fill="none" fill-rule="evenodd">
        <g id="climate-01" transform="translate(4.000000, 4.000000)" stroke="#4ECACE" stroke-width="8">
            <g id="Group">
                <circle id="Oval" cx="65.5" cy="65.5" r="65.5"></circle>
            </g>
        </g>
        <g id="if_100_Pressure_Reading_183532" transform="translate(31.000000, 31.000000)" fill="#4ECACE" fill-rule="nonzero">
            <path d="M72.4285714,39.4545455 C72.4285714,20.7772785 57.4620911,5.63636364 39,5.63636364 C20.5379089,5.63636364 5.57142857,20.7772785 5.57142857,39.4545455 C5.57142857,44.3726416 6.60916503,49.0455365 8.47520382,53.261355 C6.65312218,54.0195846 4.97521967,54.8449123 3.46164084,55.7284216 C1.23810907,50.7667636 0,45.2569276 0,39.4545455 C0,17.6644006 17.4608937,0 39,0 C60.5391064,0 78,17.6644006 78,39.4545455 C78,45.2569276 76.761891,50.7667636 74.5383592,55.7284216 C73.0247803,54.8449123 71.3468777,54.0195846 69.5247961,53.261355 C71.3908349,49.0455365 72.4285714,44.3726416 72.4285714,39.4545455 Z M36.2142857,8.45454545 L36.2142857,19.7272727 L41.7857143,19.7272727 L41.7857143,8.45454545 L36.2142857,8.45454545 Z M54.7901097,12.7291765 L48.2405026,21.8490046 L52.7478828,25.161976 L59.2974901,16.042148 L54.7901097,12.7291765 Z M67.3346483,27.2332774 L56.7371613,30.7167417 L58.4588274,36.077242 L69.0563144,32.5937776 L67.3346483,27.2332774 Z M69.0563144,46.4267743 L58.4588274,42.9433103 L56.7371613,48.3038105 L67.3346483,51.7872749 L69.0563144,46.4267743 Z M10.6653517,51.7872749 L21.2628386,48.3038105 L19.5411725,42.9433103 L8.94368561,46.4267743 L10.6653517,51.7872749 Z M8.94368561,32.5937776 L19.5411725,36.077242 L21.2628386,30.7167417 L10.6653517,27.2332774 L8.94368561,32.5937776 Z M18.70251,16.042148 L23.2098903,12.7291765 L29.7594974,21.8490046 L25.2521172,25.161976 L18.70251,16.042148 Z M39,62 C34.3844773,62 30.6428571,58.2147712 30.6428571,53.5454545 C30.6428571,50.2899143 32.4617169,47.4641428 35.1274722,46.0514275 L39,22.5454545 L42.8725278,46.0514275 C45.5382831,47.4641428 47.3571429,50.2899143 47.3571429,53.5454545 C47.3571429,58.2147712 43.6155227,62 39,62 Z" id="Oval-278-copy-2"></path>
        </g>
    </g>
</svg>