<?xml version="1.0" encoding="UTF-8"?>
<svg width="139px" height="139px" viewBox="0 0 139 139" version="1.1" xmlns="http://www.w3.org/2000/svg" xmlns:xlink="http://www.w3.org/1999/xlink">
    <!-- Generator: Sketch 52.1 (67048) - http://www.bohemiancoding.com/sketch -->
    <title>Slice 1</title>
    <desc>Created with Sketch.</desc>
    <g id="Page-1" stroke="none" stroke-width="1" fill="none" fill-rule="evenodd">
        <g id="Group-3" transform="translate(4.000000, 4.000000)" fill-rule="nonzero">
            <g id="Group">
                <circle id="Oval" stroke="#4ECACE" stroke-width="8" cx="65.5" cy="65.5" r="65.5"></circle>
                <g id="if_weather_icons-64_390474" transform="translate(50.000000, 28.000000)" fill="#4ECACE">
                    <path d="M19.5,52.8441739 L19.5,35.9565217 C19.5,34.3245217 18.156,33 16.5,33 C14.8425,33 13.5,34.3245217 13.5,35.9565217 L13.5,52.8441739 C10.8555,53.9868696 9,56.5856522 9,59.6086957 C9,63.6842609 12.3645,67 16.5,67 C20.6355,67 24,63.6842609 24,59.6086957 C24,56.5856522 22.1445,53.9868696 19.5,52.8441739 Z M16.5,61.0869565 C15.672,61.0869565 15,60.4246957 15,59.6086957 C15,58.7926957 15.672,58.1304348 16.5,58.1304348 C17.328,58.1304348 18,58.7926957 18,59.6086957 C18,60.4246957 17.328,61.0869565 16.5,61.0869565 Z" id="Shape"></path>
                    <path d="M27.6494545,48.9016154 L27.6363636,11.6923077 C27.6363636,5.24546154 22.416,0 16,0 C9.584,0 4.36363636,5.24546154 4.36363636,11.6908462 L4.34909091,48.9016154 C1.57090909,51.8729231 0,55.8190769 0,59.9230769 C0,68.7873077 7.17818182,76 16,76 C24.8218182,76 32,68.7873077 32,59.9230769 C32,55.8176154 30.4290909,51.8714615 27.6494545,48.9016154 Z M16,70.1538462 C10.3869091,70.1538462 5.81818182,65.5631538 5.81818182,59.9230769 C5.81818182,57.0233846 7.05163636,54.245 9.20290909,52.3040769 C9.81672727,51.7486923 10.1672727,50.9594615 10.1672727,50.1307692 L10.1818182,11.6923077 C10.1818182,8.46815385 12.7912727,5.84615385 16,5.84615385 C19.2087273,5.84615385 21.8181818,8.46815385 21.8181818,11.6937692 L21.8312727,50.1307692 C21.8312727,50.9594615 22.1818182,51.7501538 22.7970909,52.3040769 C24.9469091,54.245 26.1818182,57.0219231 26.1818182,59.9230769 C26.1818182,65.5631538 21.6130909,70.1538462 16,70.1538462 Z" id="Shape"></path>
                </g>
            </g>
            <g id="Group-2" transform="translate(85.000000, 35.000000)" fill="#4DCACD">
                <rect id="Rectangle" transform="translate(8.500000, 2.500000) rotate(90.000000) translate(-8.500000, -2.500000) " x="6" y="-6" width="5" height="17"></rect>
            </g>
        </g>
    </g>
</svg>