<?xml version="1.0" encoding="UTF-8"?>
<svg width="139px" height="139px" viewBox="0 0 139 139" version="1.1" xmlns="http://www.w3.org/2000/svg" xmlns:xlink="http://www.w3.org/1999/xlink">
    <!-- Generator: Sketch 52.1 (67048) - http://www.bohemiancoding.com/sketch -->
    <title>Slice 1</title>
    <desc>Created with Sketch.</desc>
    <g id="Page-1" stroke="none" stroke-width="1" fill="none" fill-rule="evenodd">
        <g id="climate-01" transform="translate(4.000000, 4.000000)" stroke="#4ECACE" stroke-width="8">
            <circle id="Oval" cx="65.5" cy="65.5" r="65.5"></circle>
        </g>
        <g id="if_weather_icons-15_390517" transform="translate(24.000000, 56.000000)" fill="#4ECACE" fill-rule="nonzero">
            <path d="M91.991375,10.1003636 C91.9885,9.99127273 91.974125,9.88363636 91.95975,9.77309091 C91.9468125,9.68581818 91.93675,9.60145455 91.9180625,9.51709091 C91.8965,9.42545455 91.8663125,9.33818182 91.836125,9.25090909 C91.8045,9.15345455 91.77,9.056 91.7283125,8.96290909 C91.715375,8.93527273 91.7110625,8.90763636 91.698125,8.88 C91.6708125,8.82618182 91.6334375,8.78109091 91.6046875,8.72872727 C91.554375,8.64 91.5040625,8.55563636 91.445125,8.47272727 C91.3890625,8.39272727 91.3258125,8.32145455 91.2625625,8.24872727 C91.203625,8.18181818 91.146125,8.11781818 91.0814375,8.05818182 C91.008125,7.98836364 90.9305,7.92436364 90.85,7.86472727 C90.7824375,7.81236364 90.714875,7.76290909 90.6415625,7.71636364 C90.5581875,7.664 90.4719375,7.61890909 90.3828125,7.57381818 C90.30375,7.536 90.226125,7.49818182 90.1441875,7.46763636 C90.05075,7.43127273 89.9544375,7.40363636 89.858125,7.376 C89.7761875,7.35418182 89.697125,7.33381818 89.6123125,7.31927273 C89.5030625,7.30036364 89.3938125,7.29163636 89.283125,7.28581818 C89.2285,7.28581818 89.1781875,7.27272727 89.125,7.27272727 L83.375,7.27272727 C83.375,3.26254545 80.1506875,0 76.1875,0 L56.0639375,0 C54.1003125,0 52.207125,0.820363636 50.873125,2.25309091 C50.441875,2.71418182 50.108375,3.23636364 49.820875,3.77745455 C48.642125,3.22909091 47.3440625,2.90909091 45.9985625,2.90909091 C44.651625,2.90909091 43.357875,3.22909091 42.182,3.77745455 C41.8945,3.23490909 41.5595625,2.71563636 41.12975,2.25309091 C39.7943125,0.820363636 37.901125,0 35.9375,0 L15.8139375,0 C11.85075,0 8.6264375,3.26254545 8.6264375,7.27272727 L2.875,7.27272727 C2.8189375,7.27272727 2.76575,7.28727273 2.7096875,7.29018182 C2.60475,7.296 2.4998125,7.30472727 2.3963125,7.32072727 C2.3043125,7.33672727 2.2180625,7.35854545 2.130375,7.38327273 C2.0398125,7.408 1.952125,7.43272727 1.865875,7.46763636 C1.7753125,7.50109091 1.6919375,7.54181818 1.607125,7.58254545 C1.5251875,7.62327273 1.446125,7.66690909 1.3670625,7.71490909 C1.288,7.76436364 1.216125,7.81818182 1.1428125,7.87345455 C1.0680625,7.93163636 0.99475,7.98981818 0.92575,8.05527273 C0.8581875,8.11927273 0.796375,8.18618182 0.736,8.256 C0.6741875,8.32727273 0.6138125,8.39709091 0.5591875,8.47272727 C0.4988125,8.55563636 0.4485,8.64145455 0.3981875,8.73163636 C0.368,8.78254545 0.330625,8.82763636 0.3033125,8.88145455 C0.2889375,8.90909091 0.284625,8.93672727 0.273125,8.96436364 C0.2314375,9.05745455 0.1969375,9.15490909 0.1653125,9.25236364 C0.135125,9.33963636 0.1049375,9.42836364 0.083375,9.51854545 C0.06325,9.60436364 0.0531875,9.69163636 0.0416875,9.77890909 C0.025875,9.88654545 0.0115,9.99272727 0.0100625,10.1003636 C0.0071875,10.1265455 0,10.1527273 0,10.1818182 C0,10.2385455 0.014375,10.2923636 0.01725,10.3490909 C0.023,10.4552727 0.031625,10.5614545 0.0474375,10.6661818 C0.06325,10.7578182 0.0848125,10.8450909 0.10925,10.9352727 C0.1336875,11.0269091 0.158125,11.1156364 0.192625,11.2029091 C0.2256875,11.2930909 0.2645,11.3774545 0.3061875,11.4632727 C0.3464375,11.5476364 0.3895625,11.6276364 0.437,11.7076364 C0.485875,11.7861818 0.537625,11.8589091 0.59225,11.9330909 C0.64975,12.0101818 0.7086875,12.0829091 0.773375,12.1541818 C0.8351875,12.2225455 0.90275,12.2850909 0.97175,12.3461818 C1.04075,12.4087273 1.1111875,12.4698182 1.1859375,12.5250909 C1.267875,12.5861818 1.3526875,12.6370909 1.4418125,12.6894545 C1.492125,12.7170909 1.5366875,12.7563636 1.589875,12.7825455 L8.645125,16.3505455 C8.832,25.0109091 15.838375,32 24.4389375,32 C31.6091875,32 40.235625,28.4232727 42.529875,12.2618182 C42.547125,12.1861818 42.5514375,12.1090909 42.5600625,12.032 C42.604625,11.7047273 42.6535,11.3861818 42.6923125,11.0487273 C43.058875,9.80654545 44.5150625,8.72727273 45.9985625,8.72727273 C47.4835,8.72727273 48.9425625,9.80654545 49.309125,11.0487273 C49.3479375,11.3847273 49.3968125,11.7047273 49.441375,12.032 C49.4514375,12.1090909 49.45575,12.1861818 49.4715625,12.2618182 C51.7658125,28.4232727 60.39225,32 67.5625,32 C76.1630625,32 83.1694375,25.0109091 83.3563125,16.352 L90.410125,12.784 C90.4633125,12.7563636 90.5064375,12.7185455 90.559625,12.688 C90.6473125,12.6370909 90.732125,12.5861818 90.8140625,12.5265455 C90.8916875,12.4698182 90.962125,12.4072727 91.031125,12.3432727 C91.0986875,12.2836364 91.163375,12.2225455 91.2251875,12.1570909 C91.29275,12.0829091 91.353125,12.0072727 91.4120625,11.9272727 C91.4638125,11.8574545 91.514125,11.7861818 91.5615625,11.712 C91.611875,11.6290909 91.655,11.5447273 91.698125,11.4574545 C91.738375,11.3745455 91.7771875,11.2930909 91.807375,11.2072727 C91.841875,11.1156364 91.8691875,11.0225455 91.893625,10.928 C91.916625,10.8421818 91.9381875,10.7578182 91.9525625,10.6690909 C91.97125,10.5614545 91.979875,10.4552727 91.9841875,10.3447273 C91.9870625,10.2894545 92,10.2370909 92,10.1818182 C92,10.1527273 91.9928125,10.128 91.991375,10.1003636 Z M26.470125,10.784 L19.282625,18.0567273 C18.7205625,18.6254545 17.986,18.9090909 17.25,18.9090909 C16.514,18.9090909 15.7794375,18.6254545 15.217375,18.0567273 C14.0946875,16.9207273 14.0946875,15.0792727 15.217375,13.9432727 L22.404875,6.67054545 C23.5275625,5.53454545 25.3474375,5.53454545 26.470125,6.67054545 C27.5928125,7.80654545 27.5928125,9.648 26.470125,10.784 Z M68.157625,10.784 L60.970125,18.0567273 C60.4080625,18.6254545 59.6735,18.9090909 58.9375,18.9090909 C58.2015,18.9090909 57.4669375,18.6254545 56.904875,18.0567273 C55.7821875,16.9207273 55.7821875,15.0792727 56.904875,13.9432727 L64.092375,6.67054545 C65.2150625,5.53454545 67.0349375,5.53454545 68.157625,6.67054545 C69.2803125,7.80654545 69.2803125,9.648 68.157625,10.784 Z" id="Shape"></path>
        </g>
    </g>
</svg>