<?xml version="1.0" encoding="UTF-8"?>
<svg width="139px" height="139px" viewBox="0 0 139 139" version="1.1" xmlns="http://www.w3.org/2000/svg" xmlns:xlink="http://www.w3.org/1999/xlink">
    <!-- Generator: Sketch 52.1 (67048) - http://www.bohemiancoding.com/sketch -->
    <title>Slice 1</title>
    <desc>Created with Sketch.</desc>
    <g id="Page-1" stroke="none" stroke-width="1" fill="none" fill-rule="evenodd">
        <g id="climate-01" transform="translate(4.000000, 4.000000)" stroke="#4ECACE" stroke-width="8">
            <circle id="Oval" cx="65.5" cy="65.5" r="65.5"></circle>
        </g>
        <g id="if_weather_icons-16_390516" transform="translate(28.000000, 41.000000)" fill="#4ECACE" fill-rule="nonzero">
            <path d="M68.0689655,17.6470588 C67.3346897,17.6470588 66.4584828,17.7632353 65.6242759,17.9176471 C62.5915862,7.37058824 53.0981379,0 42,0 C30.9004138,0 21.4084138,7.37058824 18.3757241,17.9176471 C17.5415172,17.7632353 16.6653103,17.6470588 15.9310345,17.6470588 C7.14724138,17.6470588 0,24.9044118 0,33.8235294 C0,42.7426471 7.14724138,50 15.9310345,50 L68.0689655,50 C76.8527586,50 84,42.7426471 84,33.8235294 C84,24.9044118 76.8527586,17.6470588 68.0689655,17.6470588 Z M68.92,45 L17.08,45 C11.5216,45 7,40.4093077 7,34.7692308 C7,29.1291538 11.5216,24.5384615 17.08,24.5384615 C17.47888,24.5384615 18.12112,24.6378462 18.79936,24.7752308 L18.79936,27.4615385 C18.79936,29.0750769 20.0896,30.3846154 21.67936,30.3846154 C23.26912,30.3846154 24.55936,29.0750769 24.55936,27.4615385 L24.55936,22.7466154 C26.1088,13.612 33.83008,7 43,7 C52.17424,7 59.8984,13.6193077 61.44352,22.7612308 L61.44352,27.4615385 C61.44352,29.0750769 62.73376,30.3846154 64.32352,30.3846154 C65.91472,30.3846154 67.20352,29.0750769 67.20352,27.4615385 L67.20352,24.7766923 C67.88032,24.6393077 68.52544,24.5384615 68.92,24.5384615 C74.47696,24.5384615 79,29.1291538 79,34.7692308 C79,40.4093077 74.47696,45 68.92,45 Z" id="Shape"></path>
        </g>
    </g>
</svg>