<?xml version="1.0" encoding="UTF-8"?>
<svg width="139px" height="139px" viewBox="0 0 139 139" version="1.1" xmlns="http://www.w3.org/2000/svg" xmlns:xlink="http://www.w3.org/1999/xlink">
    <!-- Generator: Sketch 52.1 (67048) - http://www.bohemiancoding.com/sketch -->
    <title>Slice 1</title>
    <desc>Created with Sketch.</desc>
    <g id="Page-1" stroke="none" stroke-width="1" fill="none" fill-rule="evenodd">
        <g id="Group-4" transform="translate(4.000000, 4.000000)" fill-rule="nonzero" stroke="#4ECACE" stroke-width="8">
            <g id="Group-3-Copy">
                <g id="Group">
                    <circle id="Oval" cx="65.5" cy="65.5" r="65.5"></circle>
                </g>
            </g>
        </g>
        <g id="if_weather-18_809992" transform="translate(34.000000, 34.000000)" fill="#4ECACE" fill-rule="nonzero">
            <path d="M69.3,33 L66,33 L66,30 C66,28.2 64.8,27 63,27 C61.2,27 60,28.2 60,30 L60,33 L47.7,33 C47.4,31.8 47.1,30.9 46.5,30 L55.2,21.3 L57.3,23.4 C58.5,24.6 60.3,24.6 61.5,23.4 C62.7,22.2 62.7,20.4 61.5,19.2 L59.4,17.1 L61.8,14.7 C63,13.5 63,12 61.8,10.8 L61.5,10.5 C60.3,9.3 58.8,9.3 57.6,10.5 L55.2,12.9 L53.1,10.8 C51.9,9.6 50.1,9.6 48.9,10.8 C47.7,12 47.7,13.8 48.9,15 L51,17.1 L42,25.8 C41.1,25.2 39.9,24.9 39,24.6 L39,12 L42,12 C43.8,12 45,10.8 45,9 C45,7.2 43.8,6 42,6 L39,6 L39,2.7 C39,1.2 37.8,0 36.3,0 L35.7,0 C34.2,0 33,1.2 33,2.7 L33,6 L30,6 C28.2,6 27,7.2 27,9 C27,10.8 28.2,12 30,12 L33,12 L33,24.3 C31.8,24.6 30.9,24.9 30,25.5 L21.3,16.8 L23.4,14.7 C24.6,13.5 24.6,11.7 23.4,10.5 C22.2,9.3 20.4,9.3 19.2,10.5 L16.8,12.6 L14.7,10.2 C13.5,9 12,9 10.8,10.2 L10.2,10.8 C9,12 9,13.5 10.2,14.7 L12.6,17.1 L10.5,18.9 C9.3,20.1 9.3,21.9 10.5,23.1 C11.7,24.3 13.5,24.3 14.7,23.1 L16.8,21 L25.8,30 C25.2,30.9 24.9,32.1 24.6,33 L12,33 L12,30 C12,28.2 10.8,27 9,27 C7.2,27 6,28.2 6,30 L6,33 L2.7,33 C1.2,33 0,34.2 0,35.7 L0,36.3 C0,37.8 1.2,39 2.7,39 L6,39 L6,42 C6,43.8 7.2,45 9,45 C10.8,45 12,43.8 12,42 L12,39 L24.3,39 C24.6,40.2 24.9,41.1 25.5,42 L16.8,51 L14.7,48.9 C13.5,47.7 11.7,47.7 10.5,48.9 C9.3,50.1 9.3,51.9 10.5,53.1 L12.6,55.2 L10.2,57.6 C9,58.8 9,60.3 10.2,61.5 L10.5,61.8 C11.7,63 13.2,63 14.4,61.8 L16.8,59.4 L18.9,61.5 C20.1,62.7 21.9,62.7 23.1,61.5 C24.3,60.3 24.3,58.5 23.1,57.3 L21,55.2 L29.7,46.5 C30.6,47.1 31.8,47.4 32.7,47.7 L32.7,60 L29.7,60 C27.9,60 26.7,61.2 26.7,63 C26.7,64.8 27.9,66 29.7,66 L32.7,66 L32.7,69.3 C32.7,70.8 33.9,72 35.4,72 L36,72 C37.5,72 38.7,70.8 38.7,69.3 L38.7,66 L41.7,66 C43.5,66 44.7,64.8 44.7,63 C44.7,61.2 43.5,60 41.7,60 L38.7,60 L38.7,47.7 C39.9,47.4 40.8,47.1 41.7,46.5 L50.4,55.2 L48.3,57.3 C47.1,58.5 47.1,60.3 48.3,61.5 C49.5,62.7 51.3,62.7 52.5,61.5 L54.6,59.4 L57,61.8 C58.2,63 59.7,63 60.9,61.8 L61.2,61.5 C62.4,60.3 62.4,58.8 61.2,57.6 L58.8,55.2 L60.9,53.1 C62.1,51.9 62.1,50.1 60.9,48.9 C59.7,47.7 57.9,47.7 56.7,48.9 L55.2,51 L46.2,42 C46.8,41.1 47.1,39.9 47.4,39 L60,39 L60,42 C60,43.8 61.2,45 63,45 C64.8,45 66,43.8 66,42 L66,39 L69.3,39 C70.8,39 72,37.8 72,36.3 L72,35.7 C72,34.2 70.8,33 69.3,33 Z M30,36 C30,32.7 32.7,30 36,30 C39.3,30 42,32.7 42,36 C42,39.3 39.3,42 36,42 C32.7,42 30,39.3 30,36 Z" id="Shape"></path>
        </g>
    </g>
</svg>